<svg id="Layer_1" data-name="Layer 1" xmlns="http://www.w3.org/2000/svg" xmlns:xlink="http://www.w3.org/1999/xlink" viewBox="0 0 804.15 757.73"><defs><style>.cls-1{fill:url(#linear-gradient);}.cls-2{fill:url(#linear-gradient-2);}.cls-3{stroke-miterlimit:10;stroke-width:0.5px;fill:url(#linear-gradient-3);stroke:url(#linear-gradient-4);}.cls-4{fill:url(#linear-gradient-5);}.cls-5{fill:url(#linear-gradient-18);}</style><linearGradient id="linear-gradient" x1="208.92" y1="608.56" x2="1013.08" y2="608.56" gradientUnits="userSpaceOnUse"><stop offset="0.18" stop-color="#5433ff"/><stop offset="0.36" stop-color="#3b74ff"/><stop offset="0.52" stop-color="#28a9ff"/><stop offset="0.6" stop-color="#20bdff"/><stop offset="1" stop-color="#a5fecb"/></linearGradient><linearGradient id="linear-gradient-2" x1="362.34" y1="369.78" x2="871.99" y2="467.87" xlink:href="#linear-gradient"/><linearGradient id="linear-gradient-3" x1="533.84" y1="326.76" x2="685.52" y2="355.96" xlink:href="#linear-gradient"/><linearGradient id="linear-gradient-4" x1="533.53" y1="345.71" x2="688.47" y2="345.71" xlink:href="#linear-gradient"/><linearGradient id="linear-gradient-5" x1="255.14" y1="875.94" x2="970.27" y2="875.94" xlink:href="#linear-gradient"/><linearGradient id="linear-gradient-18" x1="-2.42" y1="430.54" x2="199.49" y2="430.54" gradientTransform="matrix(0.9, 0.17, -0.17, 0.95, 592.96, -175.6)" xlink:href="#linear-gradient"/></defs><title>looperacademy</title><path class="cls-1" d="M998.5,536.94c-35.62-85.4-122.91-110-135.11-113.2a199.48,199.48,0,0,0-93.87-1.67c-57.71,12.51-107.75,47.75-139.48,84.6-5.31,6.16-10.11,12.38-14.53,18.58l-1.66,2.34c-37.36-57.1-98.38-96.59-165.18-110.15-104.08-21.13-209.76,58.08-234.13,148-14.39,53.06,2.69,99.72,8.89,114.63,35.56,85.44,122.83,110.06,135,113.3C391,801.94,423,801.5,452.85,795c57.5-12.56,107.36-47.67,139-84.37,5.65-6.55,10.75-13.18,15.41-19.76.3-.42.59-.83.87-1.24,37.39,57.12,98.49,96.6,165.33,110.12,104.1,21,209.72-58.26,234-148.15C1021.84,598.51,1004.73,551.84,998.5,536.94ZM379.78,717.78c-61.55-17.44-98.55-70.22-84.78-135.36,12.71-60,72.28-101.92,136.19-88.62,78.05,16.25,106.56,57.43,135,111.87l-16.88,28.2C511.24,687.6,449.05,737.39,379.78,717.78ZM927,634.61c-12.66,60-72.2,102-136.11,88.72-78.06-16.18-106.59-57.32-135-111.71l17.53-29.24c38.05-53.38,99.87-102.5,168.74-83.06C903.69,516.71,940.73,569.45,927,634.61Z" transform="translate(-208.92 -171)"/><path class="cls-2" d="M358.29,390.83S514,372.87,612.7,496.72c80.42-120.16,273.91-104.79,273.91-104.79S673.12,371,613.72,440C551.75,365.7,358.29,390.83,358.29,390.83Z" transform="translate(-208.92 -171)"/><path class="cls-3" d="M688.22,334.49A77.22,77.22,0,1,1,535.35,319a68.44,68.44,0,0,1,2.23-8.41,72.28,72.28,0,0,1,4.69-11.27,8.35,8.35,0,0,1,.43-.77,72.46,72.46,0,0,1,8-12.25c.28-.4.6-.8.94-1.2a69.72,69.72,0,0,1,4.78-5.23c.43.54.91,1.11,1.46,1.77l-.15,4.78c.35.48.86,1.17,1.55,2a70.45,70.45,0,0,0,52.65,26c33.29,1.05,54.13-19.28,57.7-23.71v-2.86l-.95-6.68c.86.92,1.06,3.21,1.86,4.19a62.1,62.1,0,0,1,4.09,5.46A76.41,76.41,0,0,1,688.22,334.49Z" transform="translate(-208.92 -171)"/><path class="cls-4" d="M255.14,823.27h8.4v65.79a5.33,5.33,0,0,0,2.12,4.26,7.77,7.77,0,0,0,5.09,1.75v9.29a15.17,15.17,0,0,1-6.08-1.21,16.12,16.12,0,0,1-4.94-3.27,15.62,15.62,0,0,1-3.35-4.87,14.42,14.42,0,0,1-1.24-6Z" transform="translate(-208.92 -171)"/><path class="cls-4" d="M300.27,847.42a23,23,0,0,1,10,2.24,26.46,26.46,0,0,1,8.2,6.06,28.42,28.42,0,0,1,5.53,9.07,30.72,30.72,0,0,1,2,11.15A30.17,30.17,0,0,1,324,887a28.4,28.4,0,0,1-5.53,9,26.65,26.65,0,0,1-8.2,6.07,23,23,0,0,1-10,2.24,22.68,22.68,0,0,1-10-2.24,26.8,26.8,0,0,1-8.15-6.07,28.4,28.4,0,0,1-5.53-9,30.17,30.17,0,0,1-2-11.09,30.72,30.72,0,0,1,2-11.15,28.42,28.42,0,0,1,5.53-9.07,26.61,26.61,0,0,1,8.15-6.06A22.68,22.68,0,0,1,300.27,847.42Zm0,9.4a15.68,15.68,0,0,0-6.71,1.47,17.23,17.23,0,0,0-5.53,4.1,19.33,19.33,0,0,0-3.71,6.12,21.42,21.42,0,0,0,0,14.86,18.56,18.56,0,0,0,3.71,6.07,18.32,18.32,0,0,0,5.53,4.1,15.5,15.5,0,0,0,13.43,0,18.27,18.27,0,0,0,9.23-10.17,21.42,21.42,0,0,0,0-14.86,19.31,19.31,0,0,0-3.7-6.12,17.34,17.34,0,0,0-5.53-4.1A15.76,15.76,0,0,0,300.27,856.82Z" transform="translate(-208.92 -171)"/><path class="cls-4" d="M360.8,847.42a23,23,0,0,1,10,2.24,26.54,26.54,0,0,1,8.19,6.06,28.42,28.42,0,0,1,5.53,9.07,30.73,30.73,0,0,1,2,11.15,30.18,30.18,0,0,1-2,11.09,28.4,28.4,0,0,1-5.53,9,26.73,26.73,0,0,1-8.19,6.07,23,23,0,0,1-10,2.24,22.68,22.68,0,0,1-10-2.24,26.8,26.8,0,0,1-8.15-6.07,28.4,28.4,0,0,1-5.53-9,30.17,30.17,0,0,1-2-11.09,30.72,30.72,0,0,1,2-11.15,28.42,28.42,0,0,1,5.53-9.07,26.61,26.61,0,0,1,8.15-6.06A22.68,22.68,0,0,1,360.8,847.42Zm0,9.4a15.68,15.68,0,0,0-6.71,1.47,17.23,17.23,0,0,0-5.53,4.1,19.33,19.33,0,0,0-3.71,6.12,21.42,21.42,0,0,0,0,14.86,18.56,18.56,0,0,0,3.71,6.07,18.32,18.32,0,0,0,5.53,4.1,15.5,15.5,0,0,0,13.43,0,18.27,18.27,0,0,0,9.23-10.17,21.42,21.42,0,0,0,0-14.86,19.31,19.31,0,0,0-3.7-6.12,17.34,17.34,0,0,0-5.53-4.1A15.76,15.76,0,0,0,360.8,856.82Z" transform="translate(-208.92 -171)"/><path class="cls-4" d="M423,847.64a22.89,22.89,0,0,1,10,2.24,26.54,26.54,0,0,1,8.19,6.06,28.42,28.42,0,0,1,5.53,9.07,30.73,30.73,0,0,1,2,11.15,29.87,29.87,0,0,1-2,11,29.27,29.27,0,0,1-5.53,9,26.1,26.1,0,0,1-8.19,6.12,22.9,22.9,0,0,1-10,2.25,23.32,23.32,0,0,1-9.43-1.92,24.8,24.8,0,0,1-7.85-5.41v31.48h-8.49V876.16a30.72,30.72,0,0,1,2-11.15,28.6,28.6,0,0,1,5.53-9.07,26.46,26.46,0,0,1,8.2-6.06A22.88,22.88,0,0,1,423,847.64Zm0,9.4a15.68,15.68,0,0,0-6.71,1.47,17.08,17.08,0,0,0-5.53,4.1,19.13,19.13,0,0,0-3.7,6.12,21.27,21.27,0,0,0,0,14.86,18.27,18.27,0,0,0,9.23,10.17,15.5,15.5,0,0,0,13.43,0,18.45,18.45,0,0,0,5.53-4.1,18.64,18.64,0,0,0,3.7-6.07,21.42,21.42,0,0,0,0-14.86,19.31,19.31,0,0,0-3.7-6.12,17.19,17.19,0,0,0-5.53-4.1A15.76,15.76,0,0,0,423,857Z" transform="translate(-208.92 -171)"/><path class="cls-4" d="M483.64,904.58a22.89,22.89,0,0,1-10-2.25,26,26,0,0,1-8.2-6.12,29.24,29.24,0,0,1-5.52-9,29.67,29.67,0,0,1-2-11,30.52,30.52,0,0,1,2-11.15,28.4,28.4,0,0,1,5.52-9.07,26.46,26.46,0,0,1,8.2-6.06,23.55,23.55,0,0,1,20.05,0,25.87,25.87,0,0,1,8.14,6.06,28.85,28.85,0,0,1,5.48,9.07,30.73,30.73,0,0,1,2,11.15v1.64c0,.58-.07,1.57-.2,3H467a18.81,18.81,0,0,0,2.27,5.79,20,20,0,0,0,3.75,4.59,16.18,16.18,0,0,0,4.89,3.06,15.27,15.27,0,0,0,5.77,1.1,9.43,9.43,0,0,0,4.74-1.37,20.21,20.21,0,0,0,4.55-3.66l5.92,6.56a28.32,28.32,0,0,1-7.16,5.62A16.48,16.48,0,0,1,483.64,904.58Zm16.69-33.12a23.42,23.42,0,0,0-2.32-5.74,18,18,0,0,0-3.7-4.59,17,17,0,0,0-4.89-3,15.84,15.84,0,0,0-11.55,0,17,17,0,0,0-4.89,3,18.82,18.82,0,0,0-3.75,4.59,19.66,19.66,0,0,0-2.27,5.74Z" transform="translate(-208.92 -171)"/><path class="cls-4" d="M529.07,903.26h-8.49V875.94a28.85,28.85,0,0,1,2.17-11.15,28,28,0,0,1,14.66-15.13,25.94,25.94,0,0,1,10.72-2.24v9.4a18.7,18.7,0,0,0-7.41,1.47,19.13,19.13,0,0,0-10.17,10.22,18.81,18.81,0,0,0-1.48,7.43Z" transform="translate(-208.92 -171)"/><path class="cls-4" d="M577.26,847.31a23.34,23.34,0,0,1,10.07,2.24,25.74,25.74,0,0,1,8.24,6.12,29.21,29.21,0,0,1,5.53,9.07,30.25,30.25,0,0,1,2,11.09v27.32h-8.59V897a25.83,25.83,0,0,1-7.85,5.3,23.32,23.32,0,0,1-9.43,1.92,22.72,22.72,0,0,1-10-2.24,26.76,26.76,0,0,1-8.14-6.07,28.4,28.4,0,0,1-5.53-9,31.31,31.31,0,0,1,0-22.18,29.21,29.21,0,0,1,5.53-9.07,26.13,26.13,0,0,1,8.14-6.12A22.72,22.72,0,0,1,577.26,847.31Zm0,9.4a15.76,15.76,0,0,0-6.72,1.47,16.72,16.72,0,0,0-5.48,4.1,20.47,20.47,0,0,0-3.7,6.12,20.69,20.69,0,0,0,0,14.86,19.61,19.61,0,0,0,3.7,6.07,17.75,17.75,0,0,0,5.48,4.1,15.24,15.24,0,0,0,6.72,1.53,15.44,15.44,0,0,0,6.81-1.53,17.75,17.75,0,0,0,5.48-4.1,18.77,18.77,0,0,0,3.65-6.07,21.27,21.27,0,0,0,0-14.86,19.56,19.56,0,0,0-3.65-6.12,16.72,16.72,0,0,0-5.48-4.1A16,16,0,0,0,577.26,856.71Z" transform="translate(-208.92 -171)"/><path class="cls-4" d="M640.16,904a22.65,22.65,0,0,1-10-2.24,26.64,26.64,0,0,1-8.15-6.07,28.47,28.47,0,0,1-5.53-9,31.33,31.33,0,0,1,0-22.19,29.21,29.21,0,0,1,5.53-9.07,26.32,26.32,0,0,1,8.15-6.12,22.65,22.65,0,0,1,10-2.24,16.91,16.91,0,0,1,8.1,2.13,26.83,26.83,0,0,1,7.2,5.74l-5.92,6.56a20.51,20.51,0,0,0-4.54-3.67,9.6,9.6,0,0,0-4.84-1.36,15.76,15.76,0,0,0-6.72,1.47,16.82,16.82,0,0,0-5.48,4.1,20.67,20.67,0,0,0-3.7,6.12,20.39,20.39,0,0,0,3.7,20.93,17.87,17.87,0,0,0,5.48,4.1,15.24,15.24,0,0,0,6.72,1.53,10,10,0,0,0,4.84-1.31,17.83,17.83,0,0,0,4.54-3.72l5.92,6.56a26,26,0,0,1-7.2,5.68A17.31,17.31,0,0,1,640.16,904Z" transform="translate(-208.92 -171)"/><path class="cls-4" d="M686.27,847.31a23.35,23.35,0,0,1,10.08,2.24,25.85,25.85,0,0,1,8.24,6.12,29.21,29.21,0,0,1,5.53,9.07,30.25,30.25,0,0,1,2,11.09v27.32h-8.6V897a25.71,25.71,0,0,1-7.85,5.3,23.28,23.28,0,0,1-9.43,1.92,22.68,22.68,0,0,1-10-2.24,26.92,26.92,0,0,1-8.15-6.07,28.58,28.58,0,0,1-5.53-9,31.45,31.45,0,0,1,0-22.18,29.4,29.4,0,0,1,5.53-9.07,26.28,26.28,0,0,1,8.15-6.12A22.68,22.68,0,0,1,686.27,847.31Zm0,9.4a15.72,15.72,0,0,0-6.71,1.47,16.61,16.61,0,0,0-5.48,4.1,20.47,20.47,0,0,0-3.7,6.12,20.55,20.55,0,0,0,0,14.86,19.61,19.61,0,0,0,3.7,6.07,17.63,17.63,0,0,0,5.48,4.1,15.2,15.2,0,0,0,6.71,1.53,15.45,15.45,0,0,0,6.82-1.53,17.87,17.87,0,0,0,5.48-4.1,19.12,19.12,0,0,0,3.65-6.07,21.42,21.42,0,0,0,0-14.86,19.94,19.94,0,0,0-3.65-6.12,16.82,16.82,0,0,0-5.48-4.1A16,16,0,0,0,686.27,856.71Z" transform="translate(-208.92 -171)"/><path class="cls-4" d="M749.37,847.31a22.67,22.67,0,0,1,9.43,2,26.61,26.61,0,0,1,7.85,5.35V823.16h8.4v52.67a30.18,30.18,0,0,1-2,11.09,28.83,28.83,0,0,1-5.48,9A26.05,26.05,0,0,1,759.4,902a23,23,0,0,1-10,2.24,22.68,22.68,0,0,1-10-2.24,26.8,26.8,0,0,1-8.15-6.07,28.58,28.58,0,0,1-5.53-9,31.45,31.45,0,0,1,0-22.18,29.4,29.4,0,0,1,5.53-9.07,26.17,26.17,0,0,1,8.15-6.12A22.68,22.68,0,0,1,749.37,847.31Zm0,9.4a15.68,15.68,0,0,0-6.71,1.47,16.61,16.61,0,0,0-5.48,4.1,20.7,20.7,0,0,0-3.71,6.12,20.69,20.69,0,0,0,0,14.86,19.82,19.82,0,0,0,3.71,6.07,17.63,17.63,0,0,0,5.48,4.1,15.5,15.5,0,0,0,13.43,0,18.27,18.27,0,0,0,9.23-10.17,21.42,21.42,0,0,0,0-14.86,19.31,19.31,0,0,0-3.7-6.12,17.34,17.34,0,0,0-5.53-4.1A15.76,15.76,0,0,0,749.37,856.71Z" transform="translate(-208.92 -171)"/><path class="cls-4" d="M811.88,904.58a22.86,22.86,0,0,1-10-2.25,26,26,0,0,1-8.2-6.12,29.27,29.27,0,0,1-5.53-9,29.87,29.87,0,0,1-2-11,30.72,30.72,0,0,1,2-11.15,28.42,28.42,0,0,1,5.53-9.07,26.46,26.46,0,0,1,8.2-6.06,23.53,23.53,0,0,1,20,0,25.8,25.8,0,0,1,8.15,6.06,29,29,0,0,1,5.48,9.07,30.72,30.72,0,0,1,2,11.15v1.64c0,.58-.06,1.57-.19,3H795.19a19.06,19.06,0,0,0,2.27,5.79,20.32,20.32,0,0,0,3.76,4.59,16,16,0,0,0,4.88,3.06,15.32,15.32,0,0,0,5.78,1.1,9.43,9.43,0,0,0,4.74-1.37,20.17,20.17,0,0,0,4.54-3.66l5.93,6.56a28.32,28.32,0,0,1-7.16,5.62A16.48,16.48,0,0,1,811.88,904.58Zm16.69-33.12a23.42,23.42,0,0,0-2.32-5.74,18.2,18.2,0,0,0-3.7-4.59,17,17,0,0,0-4.89-3,15.87,15.87,0,0,0-11.56,0,16.85,16.85,0,0,0-4.88,3,19.08,19.08,0,0,0-3.76,4.59,20,20,0,0,0-2.27,5.74Z" transform="translate(-208.92 -171)"/><path class="cls-4" d="M868.56,847.42a17.26,17.26,0,0,1,8.74,2.29,20.91,20.91,0,0,1,6.76,6.23,22.16,22.16,0,0,1,6.82-6.23,17.82,17.82,0,0,1,16.44-.54,20.26,20.26,0,0,1,6.27,4.7,23.08,23.08,0,0,1,5.83,15.41v34h-8.5v-34a12.89,12.89,0,0,0-3.3-8.8,11.76,11.76,0,0,0-3.56-2.68,9.84,9.84,0,0,0-4.39-1,10.23,10.23,0,0,0-4.45,1,11.45,11.45,0,0,0-3.6,2.68,12.9,12.9,0,0,0-2.42,3.93,13.18,13.18,0,0,0-.89,4.87v34h-8.39v-34a13.18,13.18,0,0,0-.89-4.87,12.47,12.47,0,0,0-2.47-3.93,12.31,12.31,0,0,0-3.6-2.68,9.89,9.89,0,0,0-4.4-1,10.15,10.15,0,0,0-4.44,1,11.49,11.49,0,0,0-3.61,2.68,12.89,12.89,0,0,0-3.3,8.8v34h-8.4v-34a22.85,22.85,0,0,1,1.58-8.47,22.52,22.52,0,0,1,4.25-6.94,20.14,20.14,0,0,1,6.27-4.7A17.23,17.23,0,0,1,868.56,847.42Z" transform="translate(-208.92 -171)"/><path class="cls-4" d="M950.52,904.25a17.36,17.36,0,0,1-7.65-1.75,20.3,20.3,0,0,1-6.27-4.7,23.08,23.08,0,0,1-5.83-15.41V848.51h8.49v33.88a13.56,13.56,0,0,0,.89,4.92,12.91,12.91,0,0,0,2.42,4,11.45,11.45,0,0,0,3.56,2.67,9.85,9.85,0,0,0,4.39,1,10.16,10.16,0,0,0,4.44-1,11.2,11.2,0,0,0,3.61-2.67,12.73,12.73,0,0,0,2.42-4,13.56,13.56,0,0,0,.89-4.92V848.51h8.39v58.36A22,22,0,0,1,964,922.39a21.47,21.47,0,0,1-15.36,6.34v-9.29a13.77,13.77,0,0,0,5.19-1,12.89,12.89,0,0,0,4.2-2.74,13.42,13.42,0,0,0,2.81-4,11.43,11.43,0,0,0,1-4.86v-6.56a20.38,20.38,0,0,1-5.34,2.9A17.56,17.56,0,0,1,950.52,904.25Z" transform="translate(-208.92 -171)"/><path class="cls-5" d="M702.58,214.85l-73-40.9c-6.3-3.61-17.16-3.95-23.69-.78l-77.19,36.07c-5.44,2.55-6.41,6.35-6.47,8.41s.66,5.69,5.93,8.81l6.06,3.34-1.17,36.27a11.09,11.09,0,0,0-6.93,10,11.26,11.26,0,0,0,6.07,10.39l-10.64,32.09,14,.43,5.09.17,7.73.25-3-11.52L543,298.51l-3.09-11.82a11.23,11.23,0,0,0,.46-20.39l1.06-32.41,11.1,6.27L551,286.26l0,1a3.71,3.71,0,0,0,.57,2.05c.23.32,1.29,1.95,3.26,4.32a77.69,77.69,0,0,0,118.9.32c.29-.35.46-.57.52-.66a3.86,3.86,0,0,0,.71-2v-.43l1.52-46.45L702,232.06c5.44-2.54,6.41-6.37,6.47-8.4C708.36,221.62,707.84,217.73,702.58,214.85ZM668.2,288l-.06,1.94a70.89,70.89,0,0,1-108.57-1.51c-.69-.86-1.2-1.55-1.54-2l.14-4.78,1.26-38,42.38,23.25,1.06.61a27.63,27.63,0,0,0,11.64,2.86,25,25,0,0,0,12-2.32l1.69-.8,41.27-19.82-1.14,35.21Zm31.06-62.35L673.2,238.16a2.44,2.44,0,0,0-2.37,1.28l-47.08,22.28c-4.55,2.35-13.3,2.09-17.9-.57l-56-30.83,65.75-6a3.5,3.5,0,0,0,3.12-3.74,3.36,3.36,0,0,0-3.52-3.29l-76.28,7.06-7.55-4.12a4.48,4.48,0,0,1-2.29-2.11c0-.23.49-1.12,2.43-2l77.2-36.29a22.64,22.64,0,0,1,17.7.57l73,40.9c1.89,1,2.29,1.89,2.26,2.35A6.11,6.11,0,0,1,699.26,225.63Z" transform="translate(-208.92 -171)"/></svg>